<svg version="1.2" xmlns="http://www.w3.org/2000/svg" viewBox="0 0 576 512" width="576" height="512">
	<title>kitchen-svg</title>
	<style>
		.s0 { fill: #ffa500 } 
	</style>
	<path fill-rule="evenodd" class="s0" d="m284.4 176c-14.5 64.1-71.9 112-140.4 112-79.5 0-144-64.5-144-144 0-79.5 64.5-144 144-144 68.5 0 125.9 47.9 140.4 112h71.8c8.8-9.8 21.6-16 35.8-16h104c26.5 0 48 21.5 48 48 0 26.5-21.5 48-48 48h-104c-14.2 0-27-6.2-35.8-16zm-44.4-32c0-25.5-10.1-49.9-28.1-67.9-18-18-42.4-28.1-67.9-28.1-25.5 0-49.9 10.1-67.9 28.1-18 18-28.1 42.4-28.1 67.9 0 25.5 10.1 49.9 28.1 67.9 18 18 42.4 28.1 67.9 28.1 25.5 0 49.9-10.1 67.9-28.1 18-18 28.1-42.4 28.1-67.9zm-96-64c17 0 33.3 6.7 45.3 18.7 12 12 18.7 28.3 18.7 45.3 0 17-6.7 33.3-18.7 45.3-12 12-28.3 18.7-45.3 18.7-17 0-33.3-6.7-45.3-18.7-12-12-18.7-28.3-18.7-45.3 0-17 6.7-33.3 18.7-45.3 12-12 28.3-18.7 45.3-18.7zm256 160c13.3 0 24 10.7 24 24v8h96c13.3 0 24 10.7 24 24 0 13.3-10.7 24-24 24h-240c-13.3 0-24-10.7-24-24 0-13.3 10.7-24 24-24h96v-8c0-13.3 10.7-24 24-24zm-112 224v-112h224v112c0 26.5-21.5 48-48 48h-128c-26.5 0-48-21.5-48-48zm-240-144h128c26.5 0 48 21.5 48 48 0 26.5-21.5 48-48 48h-16c0 17.7-14.3 32-32 32h-64c-17.7 0-32-14.3-32-32v-80c0-8.8 7.2-16 16-16zm128 64c8.8 0 16-7.2 16-16 0-8.8-7.2-16-16-16h-16v32zm-152 80h176c13.3 0 24 10.7 24 24 0 13.3-10.7 24-24 24h-176c-13.3 0-24-10.7-24-24 0-13.3 10.7-24 24-24z"/>
</svg>